<svg width="19" height="18" viewBox="0 0 19 18" fill="none" xmlns="http://www.w3.org/2000/svg">
<path d="M7.09528 16.9999C7.51607 16.9999 7.85718 16.6588 7.85718 16.238C7.85718 15.8172 7.51607 15.4761 7.09528 15.4761C6.67449 15.4761 6.33337 15.8172 6.33337 16.238C6.33337 16.6588 6.67449 16.9999 7.09528 16.9999Z" stroke="white" stroke-linecap="round" stroke-linejoin="round"/>
<path d="M15.4763 16.9999C15.897 16.9999 16.2382 16.6588 16.2382 16.238C16.2382 15.8172 15.897 15.4761 15.4763 15.4761C15.0555 15.4761 14.7144 15.8172 14.7144 16.238C14.7144 16.6588 15.0555 16.9999 15.4763 16.9999Z" stroke="white" stroke-linecap="round" stroke-linejoin="round"/>
<path d="M1 1H4.04762L6.08952 11.2019C6.1592 11.5527 6.35003 11.8678 6.62861 12.092C6.90719 12.3163 7.25577 12.4354 7.61333 12.4286H15.019C15.3766 12.4354 15.7252 12.3163 16.0038 12.092C16.2824 11.8678 16.4732 11.5527 16.5429 11.2019L17.7619 4.80952H4.80952" stroke="white" stroke-linecap="round" stroke-linejoin="round"/>
</svg>
